<svg width="24" height="24" viewBox="0 0 24 24" fill="none" xmlns="http://www.w3.org/2000/svg">
<circle cx="11.5" cy="8.24805" r="3.875" stroke="#161412" stroke-width="1.25"/>
<circle cx="11.5" cy="8.24805" r="3.875" stroke="black" stroke-opacity="0.2" stroke-width="1.25"/>
<circle cx="11.5" cy="8.24805" r="3.875" stroke="black" stroke-opacity="0.2" stroke-width="1.25"/>
<circle cx="11.5" cy="8.24805" r="3.875" stroke="black" stroke-opacity="0.2" stroke-width="1.25"/>
<circle cx="11.5" cy="8.24805" r="3.875" stroke="black" stroke-opacity="0.2" stroke-width="1.25"/>
<circle cx="11.5" cy="8.24805" r="3.875" stroke="black" stroke-opacity="0.2" stroke-width="1.25"/>
<path d="M17.0553 14.7513C18.3983 16.1783 19.2128 18.0725 19.3532 20.084L3.64678 20.084C3.7872 18.0725 4.60168 16.1783 5.94472 14.7513C7.4249 13.1786 9.42407 12.3027 11.5 12.3027C13.5759 12.3027 15.5751 13.1786 17.0553 14.7513Z" stroke="#161412" stroke-width="1.25"/>
<path d="M17.0553 14.7513C18.3983 16.1783 19.2128 18.0725 19.3532 20.084L3.64678 20.084C3.7872 18.0725 4.60168 16.1783 5.94472 14.7513C7.4249 13.1786 9.42407 12.3027 11.5 12.3027C13.5759 12.3027 15.5751 13.1786 17.0553 14.7513Z" stroke="black" stroke-opacity="0.2" stroke-width="1.25"/>
<path d="M17.0553 14.7513C18.3983 16.1783 19.2128 18.0725 19.3532 20.084L3.64678 20.084C3.7872 18.0725 4.60168 16.1783 5.94472 14.7513C7.4249 13.1786 9.42407 12.3027 11.5 12.3027C13.5759 12.3027 15.5751 13.1786 17.0553 14.7513Z" stroke="black" stroke-opacity="0.2" stroke-width="1.25"/>
<path d="M17.0553 14.7513C18.3983 16.1783 19.2128 18.0725 19.3532 20.084L3.64678 20.084C3.7872 18.0725 4.60168 16.1783 5.94472 14.7513C7.4249 13.1786 9.42407 12.3027 11.5 12.3027C13.5759 12.3027 15.5751 13.1786 17.0553 14.7513Z" stroke="black" stroke-opacity="0.2" stroke-width="1.25"/>
<path d="M17.0553 14.7513C18.3983 16.1783 19.2128 18.0725 19.3532 20.084L3.64678 20.084C3.7872 18.0725 4.60168 16.1783 5.94472 14.7513C7.4249 13.1786 9.42407 12.3027 11.5 12.3027C13.5759 12.3027 15.5751 13.1786 17.0553 14.7513Z" stroke="black" stroke-opacity="0.2" stroke-width="1.25"/>
<path d="M17.0553 14.7513C18.3983 16.1783 19.2128 18.0725 19.3532 20.084L3.64678 20.084C3.7872 18.0725 4.60168 16.1783 5.94472 14.7513C7.4249 13.1786 9.42407 12.3027 11.5 12.3027C13.5759 12.3027 15.5751 13.1786 17.0553 14.7513Z" stroke="black" stroke-opacity="0.2" stroke-width="1.25"/>
</svg>
