<svg width="33" height="42" viewBox="0 0 33 42" fill="none" xmlns="http://www.w3.org/2000/svg">
<path d="M29.9325 10.5H21.9325V2.625C21.9325 1.17551 20.7383 0 19.2658 0H13.9325C12.46 0 11.2658 1.17551 11.2658 2.625V10.5H3.26579C1.79329 10.5 0.599121 11.6755 0.599121 13.125V18.375C0.599121 19.8245 1.79329 21 3.26579 21H11.2658V39.375C11.2658 40.8245 12.46 42 13.9325 42H19.2658C20.7383 42 21.9325 40.8245 21.9325 39.375V21H29.9325C31.405 21 32.5991 19.8245 32.5991 18.375V13.125C32.5991 11.6755 31.405 10.5 29.9325 10.5Z" fill="black"/>
</svg>
